{
    "accessors": [
        {
            "bufferView": 0,
            "componentType": 5126,
            "count": 3199,
            "max": [
                0.7895694375038147,
                0.7001212239265442,
                0.976313054561615
            ],
            "min": [
                -0.7895693778991699,
                0.0,
                -0.976313054561615
            ],
            "type": "VEC3"
        },
        {
            "bufferView": 1,
            "componentType": 5126,
            "count": 3199,
            "type": "VEC2"
        },
        {
            "bufferView": 2,
            "componentType": 5126,
            "count": 3199,
            "type": "VEC3"
        },
        {
            "bufferView": 3,
            "componentType": 5123,
            "count": 9477,
            "type": "SCALAR"
        },
        {
            "bufferView": 4,
            "componentType": 5123,
            "count": 1344,
            "type": "SCALAR"
        },
        {
            "bufferView": 5,
            "componentType": 5123,
            "count": 192,
            "type": "SCALAR"
        },
        {
            "bufferView": 6,
            "componentType": 5123,
            "count": 96,
            "type": "SCALAR"
        }
    ],
    "asset": {
        "generator": "Adobe Creative Cloud",
        "version": "2.0"
    },
    "bufferViews": [
        {
            "buffer": 0,
            "byteLength": 38388
        },
        {
            "buffer": 0,
            "byteLength": 25592,
            "byteOffset": 38388
        },
        {
            "buffer": 0,
            "byteLength": 38388,
            "byteOffset": 63980
        },
        {
            "buffer": 0,
            "byteLength": 18954,
            "byteOffset": 102368
        },
        {
            "buffer": 0,
            "byteLength": 2688,
            "byteOffset": 121322
        },
        {
            "buffer": 0,
            "byteLength": 384,
            "byteOffset": 124010
        },
        {
            "buffer": 0,
            "byteLength": 192,
            "byteOffset": 124394
        },
        {
            "buffer": 0,
            "byteLength": 15213,
            "byteOffset": 124588
        },
        {
            "buffer": 0,
            "byteLength": 15213,
            "byteOffset": 139801
        },
        {
            "buffer": 0,
            "byteLength": 15213,
            "byteOffset": 155014
        },
        {
            "buffer": 0,
            "byteLength": 47231,
            "byteOffset": 170227
        },
        {
            "buffer": 0,
            "byteLength": 19889,
            "byteOffset": 217458
        }
    ],
    "buffers": [
        {
            "byteLength": 237347,
            "uri": "Phone.bin"
        }
    ],
    "images": [
        {
            "bufferView": 7,
            "mimeType": "image/jpeg",
            "name": "Cel.JPG"
        },
        {
            "bufferView": 8,
            "mimeType": "image/jpeg",
            "name": "Camara.JPG"
        },
        {
            "bufferView": 9,
            "mimeType": "image/jpeg",
            "name": "Blanco.JPG"
        },
        {
            "bufferView": 10,
            "mimeType": "image/jpeg",
            "name": "Emission.JPG"
        },
        {
            "bufferView": 11,
            "mimeType": "image/jpeg",
            "name": "Emission.JPG"
        }
    ],
    "materials": [
        {
            "alphaMode": "OPAQUE",
            "doubleSided": true,
            "emissiveFactor": [
                0.0,
                0.0,
                0.0
            ],
            "name": "Cel",
            "pbrMetallicRoughness": {
                "baseColorFactor": [
                    1.0,
                    0.39215087890625,
                    0.39215087890625,
                    1.0
                ],
                "baseColorTexture": {
                    "index": 0
                },
                "metallicFactor": 0.07999999821186066,
                "roughnessFactor": 0.3333333432674408
            }
        },
        {
            "alphaMode": "OPAQUE",
            "doubleSided": true,
            "emissiveFactor": [
                0.0,
                0.0,
                0.0
            ],
            "name": "Camara",
            "pbrMetallicRoughness": {
                "baseColorFactor": [
                    0.7686274647712708,
                    0.18387120962142944,
                    0.18387120962142944,
                    1.0
                ],
                "baseColorTexture": {
                    "index": 1
                },
                "metallicFactor": 0.07999999821186066,
                "roughnessFactor": 0.3333333432674408
            }
        },
        {
            "alphaMode": "OPAQUE",
            "doubleSided": true,
            "emissiveFactor": [
                0.0,
                0.0,
                0.0
            ],
            "name": "Blanco",
            "pbrMetallicRoughness": {
                "baseColorFactor": [
                    0.8039215803146362,
                    0.8039215803146362,
                    0.8039215803146362,
                    1.0
                ],
                "baseColorTexture": {
                    "index": 2
                },
                "metallicFactor": 0.07999999821186066,
                "roughnessFactor": 0.3333333432674408
            }
        },
        {
            "alphaMode": "OPAQUE",
            "doubleSided": true,
            "emissiveFactor": [
                0.0,
                0.0,
                0.0
            ],
            "name": "Emission",
            "pbrMetallicRoughness": {
                "baseColorFactor": [
                    0.6313725709915161,
                    0.616510272026062,
                    0.616510272026062,
                    1.0
                ],
                "baseColorTexture": {
                    "index": 3
                },
                "metallicFactor": 0.07999999821186066,
                "roughnessFactor": 0.3333333432674408
            }
        }
    ],
    "meshes": [
        {
            "name": "objMesh",
            "primitives": [
                {
                    "attributes": {
                        "NORMAL": 2,
                        "POSITION": 0,
                        "TEXCOORD_0": 1
                    },
                    "indices": 3,
                    "material": 0,
                    "mode": 4
                },
                {
                    "attributes": {
                        "NORMAL": 2,
                        "POSITION": 0,
                        "TEXCOORD_0": 1
                    },
                    "indices": 4,
                    "material": 1,
                    "mode": 4
                },
                {
                    "attributes": {
                        "NORMAL": 2,
                        "POSITION": 0,
                        "TEXCOORD_0": 1
                    },
                    "indices": 5,
                    "material": 2,
                    "mode": 4
                },
                {
                    "attributes": {
                        "NORMAL": 2,
                        "POSITION": 0,
                        "TEXCOORD_0": 1
                    },
                    "indices": 6,
                    "material": 3,
                    "mode": 4
                }
            ]
        }
    ],
    "nodes": [
        {
            "matrix": [
                0.8866838216781616,
                0.29216593503952026,
                0.3583717942237854,
                0.0,
                -0.21396785974502563,
                1.084728479385376,
                -0.35493558645248413,
                0.0,
                -0.42407333850860596,
                0.20499008893966675,
                0.8821225166320801,
                0.0,
                -0.05640197917819023,
                0.339185893535614,
                0.14697307348251343,
                0.9999999403953552
            ],
            "mesh": 0,
            "name": "objMesh"
        }
    ],
    "scene": 0,
    "scenes": [
        {
            "name": "Scene",
            "nodes": [
                0
            ]
        }
    ],
    "textures": [
        {
            "source": 0
        },
        {
            "source": 1
        },
        {
            "source": 2
        },
        {
            "source": 3
        },
        {
            "source": 4
        }
    ]
}
