<svg xmlns="http://www.w3.org/2000/svg" width="399" height="244" viewBox="0 0 399 244" version="1.1"><path d="M 251.630 4.790 C 251.313 5.303, 248.229 5.966, 244.777 6.265 C 241.325 6.563, 236.925 7.569, 235 8.501 C 233.075 9.432, 229.475 11.163, 227 12.347 C 219.761 15.811, 206.175 30.151, 201.749 39 C 199.686 43.125, 197.999 47.288, 197.999 48.250 C 198 50.493, 197.391 50.452, 194.273 48 C 192.874 46.900, 190.981 46, 190.065 46 C 189.149 46, 187.928 45.528, 187.352 44.952 C 185.284 42.884, 170.535 40.024, 162 40.035 C 144.531 40.059, 129.261 46.615, 116.208 59.692 L 107.915 68 97.862 68 C 84.327 68, 76.484 70.461, 60.762 79.639 C 53.558 83.846, 43.427 97.844, 39.464 109.068 C 37.470 114.717, 35.960 117.217, 33.170 119.487 C 24.398 126.628, 17.576 133.909, 13.441 140.542 C 10.999 144.461, 9 148.391, 9 149.275 C 9 150.159, 8.589 151.136, 8.087 151.446 C 7.585 151.757, 6.871 153.806, 6.500 156 C 6.129 158.194, 5.415 160.243, 4.913 160.554 C 3.756 161.269, 3.703 189.698, 4.857 190.412 C 5.329 190.703, 5.973 193.092, 6.289 195.721 C 6.828 200.207, 11.522 210.558, 14.614 214.079 C 15.376 214.947, 16 216.123, 16 216.691 C 16 217.259, 19.719 221.274, 24.264 225.612 C 33.175 234.118, 40.699 238.497, 52.355 241.962 C 59.112 243.971, 61.242 244, 200.937 244 C 341.292 244, 342.730 243.980, 349.582 241.933 C 357.171 239.666, 368.032 234.619, 371.980 231.525 C 376.181 228.232, 387 216.964, 387 215.881 C 387 215.323, 388.037 213.434, 389.304 211.683 C 392.176 207.715, 395.320 199.631, 397.543 190.500 C 399.593 182.076, 399.050 165.362, 396.469 157.500 C 392.476 145.331, 387.838 137.718, 379.060 128.924 C 374.352 124.207, 368.475 119.251, 366 117.909 L 361.500 115.470 360.861 105.485 C 360.106 93.677, 358.947 88.797, 355.019 80.879 C 350.707 72.189, 340.259 59, 337.686 59 C 337.192 59, 335.148 57.702, 333.144 56.116 C 331.140 54.530, 327.888 52.560, 325.918 51.737 C 322.324 50.237, 318 45.763, 318 43.544 C 318 39.609, 303.549 19, 300.790 19 C 300.239 19, 298.148 17.722, 296.144 16.160 C 292.993 13.704, 288.715 11.434, 280.500 7.858 C 274.325 5.169, 252.808 2.883, 251.630 4.790" stroke="none" fill="#fbfbfb" fill-rule="evenodd"/></svg>