<svg xmlns="http://www.w3.org/2000/svg" width="400" height="227" viewBox="0 0 400 227" version="1.1"><path d="M 127.168 2.090 C 101.408 9.009, 79.591 29.754, 72.050 54.500 C 68.697 65.501, 68 69.952, 68 80.354 L 68 90.680 64.250 91.790 C 62.188 92.401, 58.568 93.156, 56.206 93.469 C 53.845 93.782, 51.145 94.415, 50.206 94.875 C 49.268 95.336, 44.911 97.465, 40.525 99.606 C 28.344 105.554, 10.032 124.623, 9.994 131.400 C 9.990 132.005, 9.327 133.766, 8.520 135.314 C 7.712 136.862, 6.781 140.462, 6.451 143.314 C 6.121 146.166, 5.400 149.434, 4.850 150.575 C 2.967 154.479, 4.986 175.903, 7.858 182.500 C 11.434 190.715, 13.704 194.993, 16.160 198.144 C 17.722 200.148, 19 202.190, 19 202.681 C 19 203.883, 28.174 212.859, 31.138 214.557 C 32.437 215.302, 37.100 217.690, 41.500 219.863 C 57.092 227.565, 44.340 227, 202.524 227 C 360.042 227, 351.091 227.361, 363.303 220.512 C 365.611 219.217, 368.939 217.407, 370.698 216.489 C 398.897 201.782, 409.024 154.254, 390.511 123.500 C 389.186 121.300, 387.662 118.600, 387.123 117.500 C 386.070 115.352, 376.590 106, 375.466 106 C 375.093 106, 373.148 104.763, 371.144 103.250 C 369.140 101.737, 365.250 99.421, 362.500 98.102 C 359.750 96.783, 356.678 95.295, 355.674 94.796 C 354.669 94.296, 351.610 93.623, 348.877 93.299 C 343.515 92.664, 342.228 91.064, 340.507 82.893 C 335.390 58.603, 300.188 26, 279.078 26 C 278 26, 276.840 25.550, 276.500 25 C 275.629 23.590, 242.577 23.704, 238.071 25.132 C 229.831 27.744, 222.579 30.430, 219.428 32.037 L 216.063 33.752 205.282 23.090 C 184.307 2.349, 155.270 -5.457, 127.168 2.090" stroke="none" fill="#fbfbfb" fill-rule="evenodd"/></svg>