<svg xmlns="http://www.w3.org/2000/svg" width="400" height="323" viewBox="0 0 400 323" version="1.1"><path d="M 127.500 2.016 C 115.237 5.267, 109.032 8.162, 98.598 15.500 C 94.052 18.697, 86 26.187, 86 27.219 C 86 27.738, 84.511 30.039, 82.691 32.332 C 79.146 36.797, 73 47.995, 73 49.989 C 73 50.654, 72.381 52.616, 71.626 54.349 C 69.099 60.141, 68 68.050, 68 80.435 L 68 92.718 59.485 93.249 C 54.801 93.542, 50.414 94.218, 49.735 94.752 C 49.056 95.287, 47.167 96.044, 45.538 96.434 C 43.909 96.825, 40.624 98.462, 38.238 100.072 C 35.852 101.683, 33.453 103, 32.907 103 C 31.175 103, 15.434 119.351, 13.653 123 C 12.713 124.925, 11.583 127.175, 11.141 128 C 7.822 134.193, 6.785 137.021, 6.286 141.235 C 5.972 143.888, 5.329 146.297, 4.857 146.588 C 3.589 147.372, 3.816 170.778, 5.132 174.929 C 10.951 193.286, 14.340 199.200, 24.682 209.052 C 32.086 216.106, 44.970 224, 49.077 224 C 49.915 224, 51.137 224.537, 51.794 225.194 C 52.571 225.971, 58.669 226.582, 69.244 226.944 L 85.500 227.500 86.216 234 C 87.021 241.308, 87.004 241.259, 92.913 253.129 C 99.792 266.946, 119.718 284, 128.984 284 C 129.873 284, 131.078 284.478, 131.662 285.062 C 133.187 286.587, 153.326 287.339, 161 286.157 C 167.429 285.168, 171.970 287.289, 171.995 291.293 C 172.047 299.633, 196.662 317.469, 213.736 321.539 C 250.931 330.404, 291.656 300.060, 291.964 263.250 L 292 259 298.941 259 C 302.759 259, 306.160 258.550, 306.500 258 C 306.840 257.450, 308.036 257, 309.158 257 C 311.800 257, 319.514 253.753, 326 249.910 C 331.016 246.938, 342.823 235.098, 344.725 231.132 C 346.391 227.658, 351.227 224.010, 354.177 224.004 C 357.669 223.996, 372.371 215.551, 378.059 210.285 C 401.836 188.272, 406.821 151.562, 389.912 123 C 387.204 118.426, 372.108 103.161, 369.515 102.374 C 368.407 102.038, 366.825 101.226, 366 100.569 C 365.175 99.913, 362.475 98.570, 360 97.585 C 357.525 96.600, 354.678 95.366, 353.674 94.841 C 352.669 94.317, 349.632 93.625, 346.924 93.305 C 343.127 92.855, 342 92.322, 342 90.974 C 342 71.613, 313.702 38.393, 289 28.757 C 279.020 24.864, 246.055 22.222, 240.527 24.872 C 239.412 25.407, 236.475 26.113, 234 26.441 C 231.525 26.769, 228.150 27.671, 226.500 28.445 C 221.434 30.821, 216.228 33, 215.617 33 C 215.297 33, 210.865 28.803, 205.768 23.673 C 185.248 3.022, 155.133 -5.311, 127.500 2.016" stroke="none" fill="#fbfbfb" fill-rule="evenodd"/></svg>