<svg xmlns="http://www.w3.org/2000/svg" width="400" height="339" viewBox="0 0 400 339" version="1.1"><path d="M 179.500 2.059 C 177.850 2.602, 174.025 3.804, 171 4.732 C 161.290 7.710, 155.971 11.028, 146.600 19.956 L 137.432 28.690 124.694 29.240 C 117.689 29.543, 111.404 30.236, 110.729 30.780 C 110.053 31.324, 108.081 32.072, 106.348 32.443 C 102.693 33.223, 97.708 35.648, 93.292 38.792 C 91.587 40.006, 89.785 41, 89.288 41 C 88.186 41, 78.423 51.179, 74.901 56 C 68.406 64.892, 63.105 81.086, 63.036 92.250 L 63 98 57.736 98 C 54.841 98, 50.003 98.933, 46.986 100.073 C 43.969 101.212, 40.150 102.645, 38.500 103.256 C 7.653 114.681, -9.529 159.822, 4.721 192 C 8.994 201.649, 11.038 204.828, 17.321 211.595 C 23.912 218.693, 36.303 228, 39.162 228 C 39.928 228, 41.443 228.618, 42.527 229.372 C 44.726 230.902, 52.336 232.944, 58.621 233.691 C 62.673 234.173, 62.754 234.260, 63.393 238.840 C 64.973 250.169, 65.938 253.404, 70.494 262.668 C 74.213 270.230, 76.851 274.021, 81.915 279.086 C 88.598 285.771, 90.202 286.870, 100 291.485 C 103.025 292.909, 106.400 294.601, 107.500 295.244 C 108.653 295.917, 115.340 296.585, 123.286 296.821 L 137.073 297.229 139.536 300.459 C 140.891 302.235, 142 304.057, 142 304.507 C 142 307.501, 156.816 326, 159.214 326 C 159.644 326, 162.156 327.553, 164.798 329.450 C 180.373 340.640, 210.513 342.337, 228 333.010 C 229.925 331.983, 232.850 330.498, 234.500 329.709 C 236.150 328.921, 238.357 327.314, 239.405 326.138 C 240.453 324.962, 241.871 324, 242.556 324 C 244.666 324, 258 306.801, 258 304.080 C 258 303.156, 258.387 301.972, 258.860 301.450 C 259.333 300.927, 260.513 298.025, 261.480 295 C 264.143 286.678, 264.274 286.527, 269.102 286.224 C 294.527 284.630, 321.533 263.022, 325.624 241 C 326.731 235.043, 328.366 234, 336.596 234 C 340.603 234, 344.123 233.610, 344.418 233.133 C 344.713 232.656, 346.970 232.038, 349.434 231.760 C 368.299 229.634, 391.060 207.382, 397.550 184.722 C 398.585 181.107, 399.785 178.367, 400.216 178.634 C 400.647 178.900, 400.947 172.454, 400.882 164.309 C 400.810 155.309, 400.464 150.677, 400 152.500 C 399.291 155.287, 399.227 155.322, 399.107 153 C 398.789 146.831, 393.501 133.638, 388.468 126.457 C 380.329 114.844, 370.514 106.713, 359.676 102.606 C 357.023 101.601, 354.628 100.041, 354.353 99.139 C 354.079 98.238, 353.437 96.719, 352.927 95.764 C 352.417 94.809, 351.985 93.234, 351.966 92.264 C 351.947 91.294, 351.063 88.700, 350 86.500 C 348.937 84.300, 348.053 82.171, 348.034 81.769 C 347.869 78.224, 332.775 60.860, 326.874 57.427 C 304.677 44.516, 280.090 43.074, 260.846 53.554 C 257.424 55.418, 256 55.384, 256 53.438 C 256 44.367, 244.585 23.950, 235.206 16.248 C 221.114 4.674, 193.190 -2.438, 179.500 2.059" stroke="none" fill="#fbfbfb" fill-rule="evenodd"/></svg>