<svg xmlns="http://www.w3.org/2000/svg" width="400" height="245" viewBox="0 0 400 245" version="1.1"><path d="M 175.500 0.659 C 125.194 8.534, 85.973 50.077, 81.421 100.307 L 80.724 108 71.450 108 C -11.551 108, -28.147 223.916, 52.064 243.405 C 62.047 245.831, 337.953 245.831, 347.936 243.405 C 371.671 237.638, 392.787 217.247, 398.061 195 C 398.778 191.975, 399.733 189.072, 400.183 188.550 C 401.271 187.285, 401.240 162.733, 400.151 163.406 C 399.685 163.695, 398.747 161.449, 398.069 158.416 C 390.892 126.347, 362.880 108, 321.096 108 L 304.368 108 303.224 98.249 C 295.899 35.818, 237.236 -9.005, 175.500 0.659" stroke="none" fill="#fbfbfb" fill-rule="evenodd"/></svg>