<svg xmlns="http://www.w3.org/2000/svg" width="400" height="233" viewBox="0 0 400 233" version="1.1"><path d="M 176 1.938 C 161.490 5.996, 151.965 12.088, 141.959 23.712 L 138.500 27.730 126 28.244 C 92.011 29.640, 68.154 51.986, 63.794 86.511 L 62.613 95.862 56.056 96.980 C -16.062 109.272, -19.178 214.184, 52.064 231.413 C 62.066 233.831, 337.979 233.824, 347.936 231.405 C 371.671 225.638, 392.787 205.247, 398.061 183 C 398.778 179.975, 399.733 177.072, 400.183 176.550 C 401.385 175.153, 401.212 152, 400 152 C 399.450 152, 399 151.127, 399 150.060 C 399 136.133, 380.013 111.563, 362.573 102.921 L 354.137 98.741 352.940 93.621 C 343.428 52.935, 300.043 34.818, 257.250 53.664 C 256.432 54.024, 256 53.329, 256 51.652 C 256 20.833, 210.203 -7.627, 176 1.938" stroke="none" fill="#fbfbfb" fill-rule="evenodd"/></svg>