<svg xmlns="http://www.w3.org/2000/svg" width="400" height="229" viewBox="0 0 400 229" version="1.1"><path d="M 150 1.583 C 124.559 8.295, 104 33.855, 104 58.774 L 104 63.227 99.250 62.364 C -4.608 43.482, -40.534 194.064, 60.536 224.629 C 66.083 226.307, 75.282 226.489, 192 227.228 C 261.025 227.666, 324.025 228.126, 332 228.251 C 374.710 228.919, 399.389 200.714, 400.368 150.112 C 400.610 137.599, 400.502 134.120, 400.069 140.500 C 399.697 146, 399.303 149.337, 399.196 147.915 C 396.102 107.060, 339.976 77.793, 301.790 97.122 C 294.305 100.911, 291.340 99.891, 290.526 93.250 C 287.034 64.739, 264.109 43.933, 235.831 43.610 L 226.162 43.500 223.912 38 C 212.412 9.897, 179.657 -6.242, 150 1.583" stroke="none" fill="#fbfbfb" fill-rule="evenodd"/></svg>