<svg xmlns="http://www.w3.org/2000/svg" width="400" height="320" viewBox="0 0 400 320" version="1.1"><path d="M 125.807 2.036 C 89.528 10.958, 64.714 42.607, 64.554 80.164 L 64.500 92.828 57.195 93.916 C -14.493 104.593, -20.231 209.421, 49.880 227.571 L 58.426 229.783 60.528 236.142 C 76.930 285.771, 134.361 310.618, 180.969 288.249 L 186.946 285.380 191.868 291.523 C 238.763 350.043, 335.640 314.290, 335.965 238.344 L 336 230.188 341.157 229.478 C 367.006 225.923, 389.127 207.732, 396.566 183.911 C 398.011 179.285, 399.600 174.719, 400.097 173.764 C 401.143 171.752, 401.345 147.321, 400.307 148.360 C 399.926 148.741, 399.027 146.679, 398.310 143.776 C 392.491 120.236, 364.219 94.140, 344.398 94.013 C 342.660 94.002, 341.990 92.865, 340.517 87.426 C 326.349 35.084, 258.522 6.106, 215.143 33.862 C 213.088 35.177, 212.682 35.184, 211.972 33.915 C 198.149 9.214, 157.611 -5.784, 125.807 2.036" stroke="none" fill="#fbfbfb" fill-rule="evenodd"/></svg>