<svg xmlns="http://www.w3.org/2000/svg" width="400" height="219" viewBox="0 0 400 219" version="1.1"><path d="M 107.444 2.831 C 85.138 10.597, 70.221 29.203, 67.537 52.611 L 66.836 58.722 58.668 60.903 C -17.627 81.280, -20.516 187.177, 54.500 213.674 L 62.500 216.500 183 217.217 C 249.275 217.611, 309.489 218.199, 316.808 218.523 C 356.503 220.281, 399 185.777, 399 151.790 C 399 150.805, 399.450 150, 400 150 C 400.619 150, 400.994 144.760, 400.985 136.250 C 400.976 128.234, 400.612 123.063, 400.113 123.851 C 399.537 124.760, 399.022 123.616, 398.537 120.351 C 393.057 83.458, 355.361 54.624, 314.645 56.183 L 302.974 56.630 299.237 49.133 C 278.558 7.646, 221.598 -0.542, 188.794 33.258 L 183.087 39.137 179.824 32.319 C 167.553 6.682, 134.759 -6.678, 107.444 2.831" stroke="none" fill="#fbfbfb" fill-rule="evenodd"/></svg>