<svg xmlns="http://www.w3.org/2000/svg" width="656" height="801" viewBox="0 0 656 801" version="1.1"><path d="M 37.533 2.500 C 37.323 3.600, 29.008 180.225, 19.055 395 C 9.101 609.775, 0.684 788.988, 0.350 793.252 L -0.259 801.003 328.121 800.752 L 656.500 800.500 656.380 795.500 C 656.314 792.750, 647.210 613.425, 636.148 397 C 625.087 180.575, 616.029 2.643, 616.019 1.595 C 616 -0.275, 610.671 -0.303, 326.957 0.095 C 38.869 0.499, 37.913 0.507, 37.533 2.500 M 0.286 796.500 C 0.294 799.250, 0.488 800.256, 0.718 798.736 C 0.947 797.216, 0.941 794.966, 0.704 793.736 C 0.467 792.506, 0.279 793.750, 0.286 796.500" stroke="none" fill="#ff9c24" fill-rule="evenodd"/></svg>