<svg xmlns="http://www.w3.org/2000/svg" width="671" height="857" viewBox="0 0 671 857" version="1.1"><path d="M 613.272 38 C 613.272 40.475, 613.467 41.487, 613.706 40.250 C 613.944 39.013, 613.944 36.987, 613.706 35.750 C 613.467 34.513, 613.272 35.525, 613.272 38 M 52.286 41.500 C 52.294 44.250, 52.488 45.256, 52.718 43.736 C 52.947 42.216, 52.941 39.966, 52.704 38.736 C 52.467 37.506, 52.279 38.750, 52.286 41.500 M 614.286 59.500 C 614.294 62.250, 614.488 63.256, 614.718 61.736 C 614.947 60.216, 614.941 57.966, 614.704 56.736 C 614.467 55.506, 614.279 56.750, 614.286 59.500 M 51.286 66.500 C 51.294 69.250, 51.488 70.256, 51.718 68.736 C 51.947 67.216, 51.941 64.966, 51.704 63.736 C 51.467 62.506, 51.279 63.750, 51.286 66.500 M 615.272 82 C 615.272 84.475, 615.467 85.487, 615.706 84.250 C 615.944 83.013, 615.944 80.987, 615.706 79.750 C 615.467 78.513, 615.272 79.525, 615.272 82 M 50.286 92.500 C 50.294 95.250, 50.488 96.256, 50.718 94.736 C 50.947 93.216, 50.941 90.966, 50.704 89.736 C 50.467 88.506, 50.279 89.750, 50.286 92.500 M 616.252 103.500 C 616.263 105.700, 616.468 106.482, 616.707 105.238 C 616.946 103.994, 616.937 102.194, 616.687 101.238 C 616.437 100.282, 616.241 101.300, 616.252 103.500 M 49.286 117.500 C 49.294 120.250, 49.488 121.256, 49.718 119.736 C 49.947 118.216, 49.941 115.966, 49.704 114.736 C 49.467 113.506, 49.279 114.750, 49.286 117.500 M 617.272 126 C 617.272 128.475, 617.467 129.488, 617.706 128.250 C 617.944 127.013, 617.944 124.987, 617.706 123.750 C 617.467 122.513, 617.272 123.525, 617.272 126 M 48.286 142.500 C 48.294 145.250, 48.488 146.256, 48.718 144.736 C 48.947 143.216, 48.941 140.966, 48.704 139.736 C 48.467 138.506, 48.279 139.750, 48.286 142.500 M 618.252 147.500 C 618.263 149.700, 618.468 150.482, 618.707 149.238 C 618.946 147.994, 618.937 146.194, 618.687 145.238 C 618.437 144.282, 618.241 145.300, 618.252 147.500 M 47.286 168.500 C 47.294 171.250, 47.488 172.256, 47.718 170.736 C 47.947 169.216, 47.941 166.966, 47.704 165.736 C 47.467 164.506, 47.279 165.750, 47.286 168.500 M 619.272 170 C 619.272 172.475, 619.467 173.488, 619.706 172.250 C 619.944 171.012, 619.944 168.988, 619.706 167.750 C 619.467 166.512, 619.272 167.525, 619.272 170 M 620.272 192 C 620.272 194.475, 620.467 195.488, 620.706 194.250 C 620.944 193.012, 620.944 190.988, 620.706 189.750 C 620.467 188.512, 620.272 189.525, 620.272 192 M 46.286 193.500 C 46.294 196.250, 46.488 197.256, 46.718 195.736 C 46.947 194.216, 46.941 191.966, 46.704 190.736 C 46.467 189.506, 46.279 190.750, 46.286 193.500 M 621.272 214 C 621.272 216.475, 621.467 217.488, 621.706 216.250 C 621.944 215.012, 621.944 212.988, 621.706 211.750 C 621.467 210.512, 621.272 211.525, 621.272 214 M 45.272 219 C 45.272 221.475, 45.467 222.488, 45.706 221.250 C 45.944 220.012, 45.944 217.988, 45.706 216.750 C 45.467 215.512, 45.272 216.525, 45.272 219 M 622.272 236 C 622.272 238.475, 622.467 239.488, 622.706 238.250 C 622.944 237.012, 622.944 234.988, 622.706 233.750 C 622.467 232.512, 622.272 233.525, 622.272 236 M 44.286 244.500 C 44.294 247.250, 44.488 248.256, 44.718 246.736 C 44.947 245.216, 44.941 242.966, 44.704 241.736 C 44.467 240.506, 44.279 241.750, 44.286 244.500 M 623.272 258 C 623.272 260.475, 623.467 261.488, 623.706 260.250 C 623.944 259.012, 623.944 256.988, 623.706 255.750 C 623.467 254.512, 623.272 255.525, 623.272 258 M 43.286 269.500 C 43.294 272.250, 43.488 273.256, 43.718 271.736 C 43.947 270.216, 43.941 267.966, 43.704 266.736 C 43.467 265.506, 43.279 266.750, 43.286 269.500 M 624.272 280 C 624.272 282.475, 624.467 283.488, 624.706 282.250 C 624.944 281.012, 624.944 278.988, 624.706 277.750 C 624.467 276.512, 624.272 277.525, 624.272 280 M 42.286 295.500 C 42.294 298.250, 42.488 299.256, 42.718 297.736 C 42.947 296.216, 42.941 293.966, 42.704 292.736 C 42.467 291.506, 42.279 292.750, 42.286 295.500 M 625.272 302 C 625.272 304.475, 625.467 305.488, 625.706 304.250 C 625.944 303.012, 625.944 300.988, 625.706 299.750 C 625.467 298.512, 625.272 299.525, 625.272 302 M 41.286 320.500 C 41.294 323.250, 41.488 324.256, 41.718 322.736 C 41.947 321.216, 41.941 318.966, 41.704 317.736 C 41.467 316.506, 41.279 317.750, 41.286 320.500 M 626.272 324 C 626.272 326.475, 626.467 327.488, 626.706 326.250 C 626.944 325.012, 626.944 322.988, 626.706 321.750 C 626.467 320.512, 626.272 321.525, 626.272 324 M 40.286 345.500 C 40.294 348.250, 40.488 349.256, 40.718 347.736 C 40.947 346.216, 40.941 343.966, 40.704 342.736 C 40.467 341.506, 40.279 342.750, 40.286 345.500 M 627.272 346 C 627.272 348.475, 627.467 349.488, 627.706 348.250 C 627.944 347.012, 627.944 344.988, 627.706 343.750 C 627.467 342.512, 627.272 343.525, 627.272 346 M 628.272 368 C 628.272 370.475, 628.467 371.488, 628.706 370.250 C 628.944 369.012, 628.944 366.988, 628.706 365.750 C 628.467 364.512, 628.272 365.525, 628.272 368 M 39.286 371.500 C 39.294 374.250, 39.488 375.256, 39.718 373.736 C 39.947 372.216, 39.941 369.966, 39.704 368.736 C 39.467 367.506, 39.279 368.750, 39.286 371.500 M 629.272 390 C 629.272 392.475, 629.467 393.488, 629.706 392.250 C 629.944 391.012, 629.944 388.988, 629.706 387.750 C 629.467 386.512, 629.272 387.525, 629.272 390 M 38.286 396.500 C 38.294 399.250, 38.488 400.256, 38.718 398.736 C 38.947 397.216, 38.941 394.966, 38.704 393.736 C 38.467 392.506, 38.279 393.750, 38.286 396.500 M 630.272 412 C 630.272 414.475, 630.467 415.488, 630.706 414.250 C 630.944 413.012, 630.944 410.988, 630.706 409.750 C 630.467 408.512, 630.272 409.525, 630.272 412 M 37.286 422.500 C 37.294 425.250, 37.488 426.256, 37.718 424.736 C 37.947 423.216, 37.941 420.966, 37.704 419.736 C 37.467 418.506, 37.279 419.750, 37.286 422.500 M 631.272 434 C 631.272 436.475, 631.467 437.488, 631.706 436.250 C 631.944 435.012, 631.944 432.988, 631.706 431.750 C 631.467 430.512, 631.272 431.525, 631.272 434 M 36.286 447.500 C 36.294 450.250, 36.488 451.256, 36.718 449.736 C 36.947 448.216, 36.941 445.966, 36.704 444.736 C 36.467 443.506, 36.279 444.750, 36.286 447.500 M 632.272 456 C 632.272 458.475, 632.467 459.488, 632.706 458.250 C 632.944 457.012, 632.944 454.988, 632.706 453.750 C 632.467 452.512, 632.272 453.525, 632.272 456 M 35.286 472.500 C 35.294 475.250, 35.488 476.256, 35.718 474.736 C 35.947 473.216, 35.941 470.966, 35.704 469.736 C 35.467 468.506, 35.279 469.750, 35.286 472.500 M 633.272 478 C 633.272 480.475, 633.467 481.488, 633.706 480.250 C 633.944 479.012, 633.944 476.988, 633.706 475.750 C 633.467 474.512, 633.272 475.525, 633.272 478 M 34.286 498.500 C 34.294 501.250, 34.488 502.256, 34.718 500.736 C 34.947 499.216, 34.941 496.966, 34.704 495.736 C 34.467 494.506, 34.279 495.750, 34.286 498.500 M 634.272 500 C 634.272 502.475, 634.467 503.488, 634.706 502.250 C 634.944 501.012, 634.944 498.988, 634.706 497.750 C 634.467 496.512, 634.272 497.525, 634.272 500 M 635.272 522 C 635.272 524.475, 635.467 525.487, 635.706 524.250 C 635.944 523.013, 635.944 520.987, 635.706 519.750 C 635.467 518.513, 635.272 519.525, 635.272 522 M 33.286 523.500 C 33.294 526.250, 33.488 527.256, 33.718 525.736 C 33.947 524.216, 33.941 521.966, 33.704 520.736 C 33.467 519.506, 33.279 520.750, 33.286 523.500 M 636.272 544 C 636.272 546.475, 636.467 547.487, 636.706 546.250 C 636.944 545.013, 636.944 542.987, 636.706 541.750 C 636.467 540.513, 636.272 541.525, 636.272 544 M 32.300 549 C 32.300 552.025, 32.487 553.263, 32.716 551.750 C 32.945 550.237, 32.945 547.763, 32.716 546.250 C 32.487 544.737, 32.300 545.975, 32.300 549 M 637.272 566 C 637.272 568.475, 637.467 569.487, 637.706 568.250 C 637.944 567.013, 637.944 564.987, 637.706 563.750 C 637.467 562.513, 637.272 563.525, 637.272 566 M 31.286 574.500 C 31.294 577.250, 31.488 578.256, 31.718 576.736 C 31.947 575.216, 31.941 572.966, 31.704 571.736 C 31.467 570.506, 31.279 571.750, 31.286 574.500 M 638.272 588 C 638.272 590.475, 638.467 591.487, 638.706 590.250 C 638.944 589.013, 638.944 586.987, 638.706 585.750 C 638.467 584.513, 638.272 585.525, 638.272 588 M 30.286 599.500 C 30.294 602.250, 30.488 603.256, 30.718 601.736 C 30.947 600.216, 30.941 597.966, 30.704 596.736 C 30.467 595.506, 30.279 596.750, 30.286 599.500 M 639.272 610 C 639.272 612.475, 639.467 613.487, 639.706 612.250 C 639.944 611.013, 639.944 608.987, 639.706 607.750 C 639.467 606.513, 639.272 607.525, 639.272 610 M 29.300 625 C 29.300 628.025, 29.487 629.263, 29.716 627.750 C 29.945 626.237, 29.945 623.763, 29.716 622.250 C 29.487 620.737, 29.300 621.975, 29.300 625 M 640.272 632 C 640.272 634.475, 640.467 635.487, 640.706 634.250 C 640.944 633.013, 640.944 630.987, 640.706 629.750 C 640.467 628.513, 640.272 629.525, 640.272 632 M 28.286 650.500 C 28.294 653.250, 28.488 654.256, 28.718 652.736 C 28.947 651.216, 28.941 648.966, 28.704 647.736 C 28.467 646.506, 28.279 647.750, 28.286 650.500 M 641.272 654 C 641.272 656.475, 641.467 657.487, 641.706 656.250 C 641.944 655.013, 641.944 652.987, 641.706 651.750 C 641.467 650.513, 641.272 651.525, 641.272 654 M 27.286 675.500 C 27.294 678.250, 27.488 679.256, 27.718 677.736 C 27.947 676.216, 27.941 673.966, 27.704 672.736 C 27.467 671.506, 27.279 672.750, 27.286 675.500 M 642.272 676 C 642.272 678.475, 642.467 679.487, 642.706 678.250 C 642.944 677.013, 642.944 674.987, 642.706 673.750 C 642.467 672.513, 642.272 673.525, 642.272 676 M 643.252 697.500 C 643.263 699.700, 643.468 700.482, 643.707 699.238 C 643.946 697.994, 643.937 696.194, 643.687 695.238 C 643.437 694.282, 643.241 695.300, 643.252 697.500 M 26.286 701.500 C 26.294 704.250, 26.488 705.256, 26.718 703.736 C 26.947 702.216, 26.941 699.966, 26.704 698.736 C 26.467 697.506, 26.279 698.750, 26.286 701.500 M 644.286 717.500 C 644.294 720.250, 644.488 721.256, 644.718 719.736 C 644.947 718.216, 644.941 715.966, 644.704 714.736 C 644.467 713.506, 644.279 714.750, 644.286 717.500 M 25 724.217 C 25 725.842, 24.340 726.939, 23.180 727.243 C 21.470 727.690, 21.296 730.670, 20.297 776.609 C 19.713 803.499, 19.369 825.650, 19.534 825.833 C 19.698 826.016, 60.708 825.676, 110.666 825.078 C 160.625 824.479, 244.250 823.544, 296.500 823 C 390.145 822.025, 504.297 820.679, 602.872 819.390 L 653.244 818.731 652.659 813.615 C 652.338 810.802, 651.576 802.650, 650.965 795.500 C 650.355 788.350, 649.044 773.725, 648.051 763 C 646.347 744.593, 646.238 744.047, 646.123 753.250 L 646 763 335 763 L 24 763 24.046 758.750 C 24.071 756.413, 24.472 747.300, 24.936 738.500 C 25.401 729.700, 25.605 722.313, 25.390 722.083 C 25.176 721.854, 25 722.814, 25 724.217 M 645.310 737.500 C 645.315 740.800, 645.502 742.029, 645.725 740.232 C 645.947 738.435, 645.943 735.735, 645.715 734.232 C 645.486 732.729, 645.304 734.200, 645.310 737.500" stroke="none" fill="#d2ccc8" fill-rule="evenodd"/><path d="M 53.423 4.561 C 53.055 6.518, 53.014 10.680, 53.330 13.809 C 53.647 16.939, 47.286 186.787, 39.196 391.250 L 24.486 763 335.243 763 C 506.159 763, 646 762.739, 646 762.421 C 646 762.102, 638.539 598.415, 629.421 398.671 C 620.302 198.927, 612.823 28.689, 612.800 20.364 C 612.777 12.039, 612.448 4.725, 612.069 4.111 C 611.133 2.597, 549.716 2.119, 276.795 1.504 L 54.090 1.003 53.423 4.561" stroke="none" fill="#eeeeee" fill-rule="evenodd"/><path d="M 41.585 20.250 C 40.333 32.001, -0.309 856.025, 0.332 856.665 C 0.713 857.046, 151.492 856.769, 335.396 856.048 C 519.301 855.328, 670.270 855.049, 670.884 855.428 C 671.674 855.917, 672 853.456, 672 847 C 672 841.985, 671.656 838.095, 671.235 838.354 C 670.815 838.614, 661.324 654.478, 650.144 429.163 C 638.965 203.849, 629.648 18.938, 629.440 18.250 C 629.179 17.385, 626.588 17, 621.031 17 L 613 17 613 20.024 C 613 25.274, 643.957 704.696, 644.987 722.066 C 645.528 731.177, 646.866 748.727, 647.960 761.066 C 649.055 773.405, 650.413 788.900, 650.978 795.500 C 651.543 802.100, 652.280 810.027, 652.616 813.116 L 653.228 818.731 602.864 819.390 C 504.288 820.680, 390.139 822.025, 296.500 823 C 244.250 823.544, 160.625 824.479, 110.666 825.078 C 60.708 825.676, 19.698 826.016, 19.534 825.833 C 19.369 825.650, 19.713 803.499, 20.297 776.609 C 21.282 731.291, 21.489 727.685, 23.121 727.258 C 24.417 726.919, 25.021 725.441, 25.410 721.649 C 25.921 716.676, 53.085 24.832, 53.028 18.250 L 53 15 47.572 15 L 42.144 15 41.585 20.250 M 0.360 848 C 0.360 853.225, 0.529 855.362, 0.735 852.750 C 0.941 850.138, 0.941 845.862, 0.735 843.250 C 0.529 840.638, 0.360 842.775, 0.360 848" stroke="none" fill="#fb9c25" fill-rule="evenodd"/><path d="M 644.252 725.500 C 644.263 727.700, 644.468 728.482, 644.707 727.238 C 644.946 725.994, 644.937 724.194, 644.687 723.238 C 644.437 722.282, 644.241 723.300, 644.252 725.500 M 25.300 732 C 25.300 735.025, 25.487 736.263, 25.716 734.750 C 25.945 733.237, 25.945 730.763, 25.716 729.250 C 25.487 727.737, 25.300 728.975, 25.300 732 M 645.272 747 C 645.272 749.475, 645.467 750.487, 645.706 749.250 C 645.944 748.013, 645.944 745.987, 645.706 744.750 C 645.467 743.513, 645.272 744.525, 645.272 747 M 24.328 755.500 C 24.333 759.350, 24.513 760.802, 24.730 758.728 C 24.946 756.653, 24.943 753.503, 24.722 751.728 C 24.501 749.952, 24.324 751.650, 24.328 755.500" stroke="none" fill="#eae9e9" fill-rule="evenodd"/></svg>