<svg xmlns="http://www.w3.org/2000/svg" width="1680" height="1050" viewBox="0 0 1680 1050" version="1.1"><path d="M 545.418 85.588 C 545.048 87.560, 544.997 91.497, 545.305 94.336 C 545.614 97.176, 539.258 259.925, 531.182 456 L 516.498 812.500 826.914 812.752 C 997.643 812.890, 1137.482 812.851, 1137.668 812.665 C 1137.854 812.480, 1130.542 655.316, 1121.420 463.414 C 1112.298 271.511, 1104.826 108.153, 1104.816 100.395 C 1104.805 92.637, 1104.478 85.773, 1104.088 85.142 C 1103.129 83.591, 1043.639 83.123, 768.795 82.504 L 546.090 82.003 545.418 85.588" stroke="none" fill="#eeeeee" fill-rule="evenodd"/><path d="M 513.557 809.250 C 513.091 810.784, 511.104 906.367, 511.529 906.833 C 511.696 907.016, 552.708 906.676, 602.666 906.078 C 652.625 905.479, 736.250 904.544, 788.500 904 C 882.145 903.025, 996.297 901.679, 1094.872 900.390 L 1145.244 899.731 1144.659 894.615 C 1144.338 891.802, 1143.576 883.650, 1142.967 876.500 C 1142.358 869.350, 1140.878 852.250, 1139.680 838.500 L 1137.500 813.500 826.750 813.248 L 516 812.997 516 810.498 C 516 807.927, 514.234 807.024, 513.557 809.250" stroke="none" fill="#d2ccc8" fill-rule="evenodd"/><path d="M 533.585 101.250 C 532.333 113.001, 491.691 937.025, 492.332 937.665 C 493.005 938.339, 1162.129 936.107, 1162.872 935.429 C 1163.167 935.160, 1122.597 112.839, 1121.730 101.500 L 1121.500 98.500 1113.250 98.210 L 1105 97.919 1105.044 102.210 C 1105.068 104.569, 1112.635 265.350, 1121.860 459.500 C 1131.084 653.650, 1138.364 812.617, 1138.038 812.759 C 1137.712 812.902, 1138.440 824.377, 1139.656 838.259 C 1140.872 852.142, 1142.364 869.350, 1142.971 876.500 C 1143.578 883.650, 1144.338 891.802, 1144.659 894.615 L 1145.244 899.731 1094.872 900.390 C 996.297 901.679, 882.145 903.025, 788.500 904 C 736.250 904.544, 652.625 905.479, 602.666 906.078 C 552.708 906.676, 511.697 907.016, 511.531 906.833 C 511.365 906.650, 511.686 884.675, 512.243 858 C 513.078 818.023, 513.507 809.297, 514.687 808.347 C 515.872 807.392, 518.598 746.871, 530.546 456.347 C 538.481 263.381, 544.980 103.362, 544.987 100.750 L 545 96 539.572 96 L 534.144 96 533.585 101.250" stroke="none" fill="#fb9c25" fill-rule="evenodd"/><path d="" stroke="none" fill="#e9e8e8" fill-rule="evenodd"/></svg>