<svg xmlns="http://www.w3.org/2000/svg" width="508" height="508" viewBox="0 0 508 508" version="1.1"><path d="M 245.411 176.842 L 244.500 177.500 244.261 178.717 L 244.022 179.934 248.541 179.477 L 253.061 179.020 251.780 180.405 L 250.500 181.790 249.750 181.336 L 249 180.882 249 181.929 L 249 182.976 244.750 183.738 L 240.500 184.499 252 185.145 L 263.500 185.791 266 186.406 L 268.500 187.022 267.250 186.428 L 266 185.833 266 184.917 L 266 184 270 184 L 274 184 274 184.839 L 274 185.679 276.547 186.839 L 279.094 188 280.589 188 L 282.084 188 284.230 190 L 286.377 192 288.248 192 L 290.118 192 289.554 192.912 L 288.990 193.824 290.745 193.545 L 292.500 193.266 294 194.567 L 295.500 195.868 299.519 199.684 L 303.538 203.500 306.873 207.500 L 310.207 211.500 308.935 209 L 307.663 206.500 302.082 200.635 L 296.500 194.770 292 191.643 L 287.500 188.517 284 186.618 L 280.500 184.719 273.592 182.365 L 266.684 180.012 258.092 178.905 L 249.500 177.799 247.911 176.991 L 246.321 176.184 245.411 176.842 M 232.250 179.262 L 228 180.284 227.985 181.892 L 227.969 183.500 227 182 L 226.031 180.500 226.015 181.677 L 226 182.853 224.250 183.311 L 222.500 183.768 225.083 183.884 L 227.667 184 228.362 183.304 L 229.058 182.609 230.779 182.293 L 232.500 181.978 235.808 181.705 L 239.115 181.431 239.808 180.366 L 240.500 179.300 242 178.729 L 243.500 178.158 240 178.199 L 236.500 178.240 232.250 179.262 M 212.500 187.480 L 206.500 190.796 206.775 191.973 L 207.050 193.149 206.069 192.542 L 205.088 191.936 203.429 194.468 L 201.770 197 200.597 197 L 199.424 197 195.851 201.274 L 192.278 205.548 191.506 208.024 L 190.733 210.500 187.782 214.250 L 184.832 218 185.666 218.015 L 186.500 218.031 185.184 218.865 L 183.867 219.700 183.655 221.100 L 183.444 222.500 182.663 223.750 L 181.882 225 183.374 225 L 184.865 225 185.565 222.797 L 186.264 220.593 187.513 219.344 L 188.762 218.095 189.540 218.798 L 190.319 219.500 189.637 217.609 L 188.955 215.718 190.521 213.327 L 192.088 210.936 193.174 211.607 L 194.259 212.278 193.804 210.911 L 193.348 209.543 194.167 208.522 L 194.986 207.500 198.146 203.785 L 201.305 200.071 202.403 200.727 L 203.500 201.384 202.211 199.793 L 200.923 198.202 203.889 196.889 L 206.856 195.576 206.369 194.788 L 205.882 194 207.261 194 L 208.639 194 210.897 191.404 L 213.154 188.807 215.079 189.310 L 217.003 189.813 216.442 188.907 L 215.882 188 216.941 188 L 218 188 218 186.531 L 218 185.063 219.664 185.701 L 221.328 186.340 220.605 185.170 L 219.882 184 219.191 184.082 L 218.500 184.164 212.500 187.480 M 269.401 186.160 L 268.800 187.133 269.150 187.439 L 269.500 187.746 272.658 189.351 L 275.817 190.957 275.630 189.728 L 275.444 188.500 274.737 187.371 L 274.031 186.241 272.017 185.715 L 270.002 185.188 269.401 186.160 M 228.352 186.993 L 226.205 187.860 225.482 189.030 L 224.759 190.200 227.071 188.962 L 229.383 187.725 231.942 186.948 L 234.500 186.172 232.500 186.149 L 230.500 186.127 228.352 186.993 M 220 190.260 L 220 191.333 219.438 190.772 L 218.877 190.210 216.264 192.631 L 213.651 195.053 212.841 193.776 L 212.031 192.500 211.897 193.500 L 211.763 194.500 211.872 195.220 L 211.980 195.940 209.912 197.047 L 207.844 198.154 206.636 197.691 L 205.429 197.227 205.429 199.114 L 205.429 201 206.464 201.023 L 207.500 201.046 204.207 202.668 L 200.915 204.291 199.922 206.146 L 198.930 208 197.406 208 L 195.882 208 196.500 209 L 197.118 210 196.078 210 L 195.038 210 194.359 212.750 L 193.680 215.500 191.469 219.027 L 189.257 222.553 188.500 226.027 L 187.744 229.500 185.803 235.500 L 183.862 241.500 184.483 249.969 L 185.104 258.437 185.493 258.827 L 185.883 259.216 185.908 249.817 L 185.934 240.419 187.529 234.194 L 189.123 227.970 191.602 222.366 L 194.080 216.761 196.790 213.146 L 199.500 209.531 203.500 205.653 L 207.500 201.776 211.500 198.539 L 215.500 195.303 219.814 192.785 L 224.128 190.267 222.064 189.727 L 220 189.187 220 190.260 M 285.500 196.050 L 288.500 198.291 296.750 206.719 L 305 215.147 305 214.209 L 305 213.271 297.172 205.545 L 289.343 197.820 285.922 195.814 L 282.500 193.809 285.500 196.050 M 305 216.476 L 305 216.952 306.996 220.226 L 308.993 223.500 308.996 222.700 L 309 221.901 307.474 218.950 L 305.949 216 305.474 216 L 305 216 305 216.476 M 180.196 235.780 L 180.632 242.061 179.316 243.153 L 178 244.245 178.107 250.372 L 178.214 256.500 179.207 252 L 180.199 247.500 181.285 246.174 L 182.371 244.848 180.936 243.939 L 179.500 243.031 180.867 243.015 L 182.233 243 181.751 240.476 L 181.268 237.952 182.150 237.407 L 183.033 236.862 182.460 235.935 L 181.887 235.008 181.475 232.868 L 181.063 230.729 180.411 230.115 L 179.760 229.500 180.196 235.780 M 314.232 242 L 314.232 245.500 314.689 243.750 L 315.147 242 314.689 240.250 L 314.232 238.500 314.232 242 M 314.232 258 L 314.232 261.500 314.689 259.750 L 315.147 258 314.689 256.250 L 314.232 254.500 314.232 258 M 311.253 271.141 L 310.035 274.368 310.489 274.823 L 310.944 275.277 312.005 272.487 L 313.066 269.697 312.768 268.805 L 312.471 267.913 311.253 271.141 M 181.045 271.750 L 182.041 274.500 182.938 276.500 L 183.835 278.500 186.525 284 L 189.215 289.500 190.620 292 L 192.025 294.500 191.626 296.175 L 191.226 297.850 192.757 297.263 L 194.287 296.676 196.893 299.721 L 199.500 302.767 205 307.137 L 210.500 311.507 217.626 315.243 L 224.752 318.978 233.626 321.094 L 242.500 323.209 253.985 322.855 L 265.470 322.500 265.985 325.394 L 266.500 328.287 268.293 324.520 L 270.085 320.753 268.606 321.321 L 267.127 321.888 263.317 320.035 L 259.506 318.181 258.878 319.197 L 258.250 320.214 257.556 319.090 L 256.862 317.967 255.731 318.667 L 254.599 319.366 248.213 319.672 L 241.827 319.978 239.698 318.838 L 237.568 317.698 233.284 317.446 L 229 317.193 229 318.148 L 229 319.103 226.500 316.405 L 224 313.708 224 315.576 L 224 317.445 222.372 315.121 L 220.744 312.796 219.981 314.031 L 219.218 315.266 216.886 313.633 L 214.555 312 215.777 312 L 217 312 217 311.173 L 217 310.346 213.858 310.808 L 210.716 311.269 211.374 310.203 L 212.033 309.138 211 308.500 L 209.967 307.862 210.467 307.053 L 210.968 306.244 207.917 305.633 L 204.867 305.023 205.588 303.857 L 206.309 302.691 205.405 303.228 L 204.500 303.765 202.186 302.891 L 199.872 302.017 200.499 301.001 L 201.127 299.986 199.313 299.341 L 197.500 298.696 195.774 297.214 L 194.047 295.733 194.587 294.860 L 195.126 293.986 192.860 290.804 L 190.594 287.621 187.828 282.061 L 185.063 276.500 185.031 274.973 L 185 273.445 183.443 271.223 L 181.887 269 180.968 269 L 180.050 269 181.045 271.750 M 308.047 279.250 L 306.655 282.500 306.207 283.500 L 305.760 284.500 307.196 283 L 308.631 281.500 309.794 278.750 L 310.957 276 310.198 276 L 309.438 276 308.047 279.250 M 191.040 279.300 L 191 280.099 192.434 282.872 L 193.868 285.646 195.684 287.056 L 197.500 288.466 195.875 286.483 L 194.250 284.500 192.665 281.500 L 191.080 278.500 191.040 279.300 M 198.714 291.500 L 200.792 294.500 203.646 297.021 L 206.500 299.542 210.500 302.372 L 214.500 305.202 210 301.380 L 205.500 297.557 201.068 293.028 L 196.635 288.500 198.714 291.500 M 297.852 294.750 L 294.382 298.500 290.441 301.836 L 286.500 305.172 290 302.864 L 293.500 300.557 295.517 298.528 L 297.535 296.500 299.942 293.750 L 302.349 291 301.835 291 L 301.321 291 297.852 294.750 M 215.352 305.760 L 215.854 306.572 220.491 308.889 L 225.129 311.205 225.536 310.797 L 225.944 310.389 220.397 307.669 L 214.850 304.948 215.352 305.760 M 229.500 312.536 L 232.500 313.910 234.500 313.888 L 236.500 313.866 232 312.448 L 227.500 311.030 227 311.096 L 226.500 311.162 229.500 312.536 M 239 314.602 L 241.500 315.098 243 315.671 L 244.500 316.245 248.564 316.602 L 252.629 316.959 257.064 316.089 L 261.500 315.219 254.500 315.101 L 247.500 314.983 242 314.544 L 236.500 314.105 239 314.602 M 147.454 340.750 L 144.010 344.500 144.005 345.405 L 144 346.310 146.108 344.405 L 148.216 342.500 150.176 339.750 L 152.136 337 151.517 337 L 150.898 337 147.454 340.750" stroke="none" fill="#074060" fill-rule="evenodd"/><path d="M 244.250 185.739 L 250 186.100 255.750 185.739 L 261.500 185.378 250 185.378 L 238.500 185.378 244.250 185.739 M 230.851 187.391 L 227.203 188.695 221.351 191.968 L 215.500 195.242 211.500 198.509 L 207.500 201.776 203.500 205.653 L 199.500 209.531 196.790 213.146 L 194.080 216.761 191.602 222.366 L 189.123 227.970 187.516 234.235 L 185.909 240.500 185.934 251.500 L 185.959 262.500 187.520 268.500 L 189.081 274.500 191.645 279.431 L 194.209 284.362 198.065 289.470 L 201.922 294.579 208.314 299.701 L 214.705 304.822 220.603 307.799 L 226.500 310.775 232 312.423 L 237.500 314.072 248.500 314.667 L 259.500 315.262 265.887 313.616 L 272.275 311.971 278.447 309.025 L 284.619 306.080 290.059 301.887 L 295.500 297.695 299.968 292.333 L 304.435 286.971 306.288 283.236 L 308.140 279.500 310.521 273.262 L 312.901 267.024 314.034 258.762 L 315.166 250.500 314.529 245 L 313.892 239.500 312.358 234 L 310.825 228.500 307.504 221.500 L 304.184 214.500 298.564 208.312 L 292.944 202.124 288.722 198.895 L 284.500 195.666 291.780 203.136 L 299.060 210.607 298.480 211.186 L 297.901 211.766 300.436 215.501 L 302.972 219.237 302.523 219.963 L 302.074 220.689 304.033 225.845 L 305.992 231 305.373 231 L 304.755 231 306 232.500 L 307.245 234 306.170 234 L 305.095 234 305.118 241.043 L 305.140 248.086 303.002 254.993 L 300.865 261.899 297.034 267.826 L 293.203 273.754 287.668 279.288 L 282.134 284.823 280.067 285.479 L 278 286.135 278 287.234 L 278 288.333 277.330 287.663 L 276.660 286.993 274.580 288.318 L 272.500 289.644 268.194 291.336 L 263.888 293.029 260.694 293.505 L 257.500 293.981 253.972 294.388 L 250.444 294.794 241.970 293.437 L 233.495 292.080 226.078 288.471 L 218.662 284.861 211.814 278.250 L 204.967 271.640 203.645 269.070 L 202.323 266.500 199.691 261.860 L 197.059 257.221 196.393 252.860 L 195.727 248.500 194.737 247.245 L 193.747 245.990 194.226 240.995 L 194.706 236 193.103 235.968 L 191.500 235.936 193.250 234.608 L 195 233.280 195 232.081 L 195 230.882 194 231.500 L 193 232.118 193 231.713 L 193 231.307 194.595 228.110 L 196.190 224.913 196.373 223.707 L 196.556 222.500 197.140 221.500 L 197.723 220.500 198.374 217.776 L 199.025 215.052 201.540 211.276 L 204.056 207.500 208.778 202.662 L 213.500 197.823 220.350 193.738 L 227.200 189.653 232.350 187.897 L 237.500 186.140 236 186.114 L 234.500 186.088 230.851 187.391 M 276.083 191.326 L 276.500 191.653 280.250 193.908 L 284 196.163 284 195.663 L 284 195.163 280.632 193.082 L 277.264 191 276.465 191 L 275.667 191 276.083 191.326 M 188.120 212.250 L 184.941 217.500 187.911 214 L 190.881 210.500 191.347 208.750 L 191.813 207 191.556 207 L 191.299 207 188.120 212.250" stroke="none" fill="#005d8d" fill-rule="evenodd"/><path d="M 242 187.117 L 235.500 187.737 233.500 188.476 L 231.500 189.214 228 190.748 L 224.500 192.283 217.940 196.498 L 211.381 200.713 207.802 205.607 L 204.224 210.500 202.215 214.097 L 200.206 217.694 197.985 226.559 L 195.764 235.424 196.277 242.462 L 196.790 249.500 198.923 255.969 L 201.056 262.437 202.666 264.969 L 204.275 267.500 207.888 272.337 L 211.500 277.174 217.417 281.638 L 223.334 286.102 227.646 288.066 L 231.957 290.030 237.740 291.512 L 243.523 292.993 248.512 293.184 L 253.500 293.375 258.288 292.621 L 263.077 291.866 266.788 290.349 L 270.500 288.832 276 286.176 L 281.500 283.521 288.226 276.914 L 294.953 270.307 298.447 262.903 L 301.941 255.500 303.084 248.013 L 304.228 240.526 303.601 234.513 L 302.974 228.500 301.559 223.179 L 300.143 217.858 295.998 210.997 L 291.853 204.136 287.112 199.702 L 282.372 195.267 274.669 191.612 L 266.967 187.957 262.733 187.459 L 258.500 186.961 253.500 186.729 L 248.500 186.498 242 187.117" stroke="none" fill="#0084c5" fill-rule="evenodd"/><path d="M 242 178.729 L 240.500 179.300 239.808 180.366 L 239.115 181.431 235.808 181.705 L 232.500 181.978 230.779 182.293 L 229.058 182.609 228.362 183.304 L 227.667 184 225.083 183.930 L 222.500 183.859 224.500 183 L 226.500 182.141 225.184 182.070 L 223.869 182 221.906 183.050 L 219.944 184.100 220.636 185.220 L 221.328 186.340 219.664 185.701 L 218 185.063 218 186.531 L 218 188 216.941 188 L 215.882 188 216.442 188.907 L 217.003 189.813 215.079 189.310 L 213.154 188.807 210.897 191.404 L 208.639 194 207.261 194 L 205.882 194 206.369 194.788 L 206.856 195.576 203.889 196.889 L 200.923 198.202 202.211 199.793 L 203.500 201.384 202.403 200.727 L 201.305 200.071 198.146 203.785 L 194.986 207.500 194.167 208.522 L 193.348 209.543 193.804 210.911 L 194.259 212.278 193.174 211.607 L 192.088 210.936 190.521 213.327 L 188.955 215.718 189.637 217.609 L 190.319 219.500 189.540 218.798 L 188.762 218.095 187.513 219.344 L 186.264 220.593 185.565 222.797 L 184.865 225 183.374 225 L 181.882 225 182.500 226 L 183.118 227 181.966 227 L 180.814 227 181.259 230.856 L 181.704 234.713 182.369 235.787 L 183.033 236.862 182.150 237.407 L 181.268 237.952 181.751 240.476 L 182.233 243 181.148 243 L 180.063 243 180.600 241.601 L 181.136 240.202 180.068 239.542 L 179 238.882 179 240.891 L 179 242.901 180.750 243.888 L 182.500 244.875 181.103 246.188 L 179.707 247.500 180.412 246.250 L 181.118 245 180.305 245 L 179.493 245 179.181 256.342 L 178.869 267.684 181.395 269.339 L 183.921 270.995 184.950 274.747 L 185.978 278.500 188.359 283.164 L 190.741 287.828 192.934 290.907 L 195.126 293.986 194.587 294.860 L 194.047 295.733 195.774 297.214 L 197.500 298.696 199.313 299.341 L 201.127 299.986 200.499 301.001 L 199.872 302.017 202.186 302.891 L 204.500 303.765 205.405 303.228 L 206.309 302.691 205.588 303.857 L 204.867 305.023 207.917 305.633 L 210.968 306.244 210.467 307.053 L 209.967 307.862 211 308.500 L 212.033 309.138 211.374 310.203 L 210.716 311.269 213.858 310.808 L 217 310.346 217 311.173 L 217 312 215.777 312 L 214.555 312 216.886 313.633 L 219.218 315.266 219.981 314.031 L 220.744 312.796 222.372 315.121 L 224 317.445 224 315.576 L 224 313.708 226.500 316.405 L 229 319.103 229 318.148 L 229 317.193 233.284 317.446 L 237.568 317.698 239.698 318.838 L 241.827 319.978 248.213 319.672 L 254.599 319.366 255.731 318.667 L 256.862 317.967 257.556 319.090 L 258.250 320.214 258.878 319.197 L 259.506 318.181 263.376 320.063 L 267.245 321.945 275.817 318.397 L 284.389 314.849 289.945 311.174 L 295.500 307.500 301.197 301.784 L 306.895 296.069 310.608 290.284 L 314.321 284.500 316.817 278.500 L 319.312 272.500 320.286 268 L 321.260 263.500 321.700 251.500 L 322.140 239.500 321.070 235.750 L 320 232 318.785 227.750 L 317.570 223.500 315.580 220 L 313.589 216.500 312.979 216 L 312.368 215.500 309.307 211 L 306.247 206.500 300.873 201.142 L 295.500 195.784 294 194.525 L 292.500 193.266 290.745 193.545 L 288.990 193.824 289.554 192.912 L 290.118 192 288.248 192 L 286.377 192 284.230 190 L 282.084 188 280.589 188 L 279.094 188 276.547 186.839 L 274 185.679 274 184.839 L 274 184 270 184 L 266 184 266 184.893 L 266 185.786 267.468 186.349 L 268.936 186.913 269.500 186 L 270.064 185.088 272.282 185.909 L 274.500 186.729 274.500 188.006 L 274.500 189.282 276 190.071 L 277.500 190.860 283.500 194.369 L 289.500 197.878 296.674 204.994 L 303.848 212.110 306.252 216.805 L 308.657 221.500 310.780 227 L 312.904 232.500 314.015 236.842 L 315.127 241.184 315.149 249.360 L 315.172 257.535 314.025 263.865 L 312.877 270.194 311.772 272.847 L 310.668 275.500 310.535 276 L 310.402 276.500 309.594 278.874 L 308.786 281.249 304.914 286.891 L 301.042 292.534 297.271 296.608 L 293.500 300.683 288.500 304.090 L 283.500 307.497 281.500 308.545 L 279.500 309.592 274 311.760 L 268.500 313.928 260.500 315.469 L 252.500 317.011 248.500 316.628 L 244.500 316.246 243 315.701 L 241.500 315.156 237.500 314.543 L 233.500 313.930 227.500 311.795 L 221.500 309.660 215 305.451 L 208.500 301.241 205.145 298.389 L 201.790 295.536 197.354 289.702 L 192.917 283.868 189.920 277.325 L 186.923 270.783 185.939 263.141 L 184.955 255.500 184.371 248.826 L 183.787 242.152 185.855 235.326 L 187.923 228.500 188.621 225.500 L 189.320 222.500 191.500 219 L 193.680 215.500 194.359 212.750 L 195.038 210 196.078 210 L 197.118 210 196.500 209 L 195.882 208 197.406 208 L 198.930 208 199.922 206.146 L 200.915 204.291 204.207 202.668 L 207.500 201.046 206.464 201.023 L 205.429 201 205.429 199.114 L 205.429 197.227 206.636 197.691 L 207.844 198.154 209.912 197.047 L 211.980 195.940 211.872 195.220 L 211.763 194.500 211.897 193.500 L 212.031 192.500 212.841 193.776 L 213.651 195.053 216.264 192.631 L 218.877 190.210 219.438 190.772 L 220 191.333 220 190.260 L 220 189.187 222.033 189.719 L 224.066 190.250 225.825 188.659 L 227.583 187.067 238.040 185.040 L 248.496 183.013 248.833 182 L 249.171 180.988 249.835 181.389 L 250.500 181.790 251.780 180.405 L 253.061 179.020 248.488 179.482 L 243.916 179.945 244.517 178.972 L 245.118 178 244.309 178.079 L 243.500 178.158 242 178.729" stroke="none" fill="#043d61" fill-rule="evenodd"/><path d="M 312.435 3.073 L 306.370 6.105 300.664 10.584 L 294.958 15.062 289.229 22.074 L 283.500 29.086 278.317 38.137 L 273.135 47.189 269.067 56.465 L 264.999 65.740 262.070 74.120 L 259.141 82.500 257.140 89.500 L 255.140 96.500 252.363 110 L 249.587 123.500 249.356 129 L 249.125 134.500 247.948 149 L 246.771 163.500 246.295 169.288 L 245.819 175.076 247.032 176.538 L 248.245 178 251.017 178 L 253.789 178 253.840 162.750 L 253.891 147.500 255.437 135.763 L 256.983 124.026 259.544 111.263 L 262.105 98.500 266.017 84.784 L 269.928 71.067 274.084 61.284 L 278.240 51.500 281.251 45.519 L 284.262 39.537 288.731 32.755 L 293.199 25.973 298.986 20.095 L 304.773 14.217 309.540 11.424 L 314.307 8.630 319.809 6.815 L 325.310 5 330.425 5 L 335.540 5 342.859 7.028 L 350.177 9.056 355.339 11.648 L 360.500 14.240 367.227 19.198 L 373.955 24.156 378.508 29.220 L 383.061 34.284 386.533 40.492 L 390.005 46.701 391.862 52.100 L 393.719 57.500 395 66.112 L 396.281 74.723 394.556 85.923 L 392.831 97.123 390.012 105.463 L 387.193 113.803 383.236 121.651 L 379.278 129.500 373.538 138.500 L 367.799 147.500 363.706 153.500 L 359.613 159.500 353.615 167.500 L 347.617 175.500 340.111 184.500 L 332.605 193.500 324.054 203.500 L 315.504 213.500 314.256 214.298 L 313.008 215.095 315.041 219.080 L 317.074 223.065 319.749 219.783 L 322.424 216.500 328.989 209 L 335.555 201.500 342.614 193 L 349.673 184.500 356.807 175.385 L 363.941 166.269 372.523 153.385 L 381.104 140.500 386.491 129.500 L 391.878 118.500 394.489 111.500 L 397.100 104.500 398.105 100.500 L 399.110 96.500 400.535 89 L 401.961 81.500 401.980 73.764 L 402 66.029 400.851 61.264 L 399.703 56.500 397.966 51.300 L 396.229 46.101 392.451 39.347 L 388.674 32.593 380.087 23.673 L 371.500 14.752 365.741 10.833 L 359.982 6.913 352.769 3.457 L 345.556 0 332.028 0.021 L 318.500 0.041 312.435 3.073 M 189.385 299.232 L 186.500 301.463 186.167 302.231 L 185.834 302.998 180.285 308.249 L 174.736 313.500 167.118 321.424 L 159.500 329.349 155.500 333.500 L 151.500 337.651 146.789 343.575 L 142.077 349.500 139.443 354.500 L 136.808 359.500 133.175 363.948 L 129.542 368.396 127.262 373.315 L 124.983 378.235 121.992 382.668 L 119 387.100 119 387.586 L 119 388.071 114.623 397.285 L 110.246 406.500 108.093 412.369 L 105.939 418.238 103.443 427.620 L 100.946 437.003 100.373 446.251 L 99.799 455.500 101.378 462.906 L 102.957 470.312 105.822 476.406 L 108.687 482.500 113.767 487.500 L 118.848 492.500 124.174 495.716 L 129.500 498.932 136.500 501.556 L 143.500 504.181 159.500 504.984 L 175.500 505.787 180.500 504.818 L 185.500 503.850 192.359 501.296 L 199.219 498.741 206.361 493.965 L 213.502 489.188 219.641 482.795 L 225.780 476.402 230.495 469.114 L 235.209 461.827 239.623 452.508 L 244.038 443.189 247.926 431.344 L 251.815 419.500 253.477 412 L 255.139 404.500 257.137 393.500 L 259.135 382.500 260.109 375.500 L 261.082 368.500 262.058 360.500 L 263.033 352.500 264.085 342 L 265.137 331.500 265.318 327 L 265.500 322.500 262 322.500 L 258.500 322.500 258.222 327 L 257.944 331.500 256.429 344.500 L 254.915 357.500 254.021 365.500 L 253.127 373.500 251.116 385.500 L 249.104 397.500 248.081 402.500 L 247.058 407.500 245.133 415 L 243.208 422.500 241.665 428.066 L 240.121 433.633 237.695 440.079 L 235.268 446.526 232.006 453.013 L 228.744 459.500 223.720 466.789 L 218.696 474.078 210.725 481.576 L 202.754 489.075 193.627 493.477 L 184.500 497.880 176.792 499.440 L 169.084 501 163.792 500.987 L 158.500 500.974 149 499.014 L 139.500 497.055 132.048 493.373 L 124.596 489.691 120.043 485.095 L 115.490 480.500 112.354 474.500 L 109.217 468.500 108.109 463.201 L 107 457.902 107 450.547 L 107 443.193 108.924 433.629 L 110.848 424.065 113.534 416.283 L 116.219 408.500 123.009 394.500 L 129.799 380.500 138.494 367 L 147.190 353.500 154.832 344 L 162.474 334.500 173.987 322.636 L 185.500 310.773 191.195 306.886 L 196.890 303 198.013 303 L 199.136 303 197 300 L 194.864 297 193.567 297 L 192.270 297 189.385 299.232" stroke="none" fill="#8a0002" fill-rule="evenodd"/><path d="M 327.802 79.310 L 326.214 82.500 324.951 86 L 323.688 89.500 321.450 94.500 L 319.211 99.500 315.997 106.500 L 312.783 113.500 308.380 122.500 L 303.976 131.500 300.186 138.500 L 296.396 145.500 291.948 154 L 287.500 162.500 286.899 163 L 286.298 163.500 283.899 167.659 L 281.500 171.819 278.592 176.607 L 275.684 181.395 276.891 181.797 L 278.098 182.199 284.647 185.613 L 291.195 189.026 295.848 192.763 L 300.500 196.500 301 197.121 L 301.500 197.742 305.710 202.621 L 309.919 207.500 312.306 210.326 L 314.693 213.151 323.097 203.331 L 331.500 193.511 340.526 182.506 L 349.553 171.500 354.096 165.500 L 358.638 159.500 364.107 151.500 L 369.576 143.500 372.807 138.205 L 376.037 132.910 375.632 129.705 L 375.227 126.500 373.553 122.637 L 371.879 118.774 369.214 114.637 L 366.550 110.500 360.792 103.349 L 355.033 96.198 348.780 90.539 L 342.528 84.881 337.066 81.190 L 331.605 77.500 330.498 76.810 L 329.391 76.119 327.802 79.310 M 258.545 120.545 L 257.850 125.183 258.305 125.638 L 258.759 126.092 259.455 121.455 L 260.150 116.817 259.695 116.362 L 259.241 115.908 258.545 120.545 M 255.232 146 L 255.232 149.500 255.689 147.750 L 256.147 146 255.689 144.250 L 255.232 142.500 255.232 146 M 255.116 155.750 L 255 161 255.799 161 L 256.598 161 256.242 157.250 L 255.885 153.500 255.558 152 L 255.232 150.500 255.116 155.750 M 255.272 166 L 255.272 170.500 255.706 168.250 L 256.139 166 255.706 163.750 L 255.272 161.500 255.272 166 M 255.150 173.750 L 255 177 256.500 177 L 258 177 258 175.941 L 258 174.882 257.068 175.458 L 256.136 176.034 255.718 173.267 L 255.300 170.500 255.150 173.750 M 189.625 309.080 L 186.981 311.160 187.596 312.155 L 188.211 313.151 190.165 311.053 L 192.119 308.956 193.060 309.537 L 194 310.118 194 308.559 L 194 307 193.135 307 L 192.270 307 189.625 309.080 M 182.980 314.524 L 181.715 316.048 182.161 316.494 L 182.607 316.940 184.294 314.970 L 185.980 313 185.113 313 L 184.245 313 182.980 314.524 M 213.270 317.285 L 213.119 319.500 212.396 324 L 211.673 328.500 211.413 329.500 L 211.153 330.500 209.201 339.500 L 207.249 348.500 203.563 362.500 L 199.877 376.500 196.016 389 L 192.156 401.500 188.211 412.507 L 184.266 423.514 183.597 426.558 L 182.929 429.602 186.714 429.885 L 190.500 430.168 199 430.223 L 207.500 430.278 214.500 430.013 L 221.500 429.748 222.235 428.624 L 222.969 427.500 222.985 428.750 L 223 430 225 430 L 227 430 227 428.500 L 227 427 228.300 427 L 229.600 427 230.947 428.250 L 232.293 429.500 231.658 428.364 L 231.022 427.227 233.010 426.708 L 234.998 426.188 235.500 426.999 L 236.001 427.811 238.378 426.690 L 240.754 425.568 241.940 422.290 L 243.125 419.012 242.504 418.006 L 241.882 417 242.910 417 L 243.937 417 243.362 415.500 L 242.786 414 243.687 414 L 244.587 414 245.835 407.750 L 247.082 401.500 247.983 396.500 L 248.884 391.500 249.868 386 L 250.852 380.500 251.003 377 L 251.155 373.500 251.292 371.750 L 251.429 370 252.066 370 L 252.704 370 253.525 361.750 L 254.346 353.500 254.268 348.250 L 254.190 343 253.975 341.750 L 253.760 340.500 254.419 335.150 L 255.078 329.799 253.926 328.411 L 252.773 327.022 251.887 327.570 L 251 328.118 251 327.015 L 251 325.912 249.750 326.075 L 248.500 326.237 244 326.048 L 239.500 325.859 241.443 325.099 L 243.387 324.338 237.193 323.341 L 231 322.343 230.970 323.422 L 230.939 324.500 229.873 322.666 L 228.806 320.832 226.153 321.446 L 223.500 322.061 225 320.986 L 226.500 319.911 224.402 320.205 L 222.303 320.500 219.402 319.043 L 216.500 317.586 214.960 316.328 L 213.420 315.070 213.270 317.285 M 175.677 321.815 L 173 324.609 173 325.528 L 173 326.446 176.050 323.106 L 179.100 319.767 178.727 319.394 L 178.354 319.021 175.677 321.815" stroke="none" fill="#f35139" fill-rule="evenodd"/><path d="M 286.369 65.493 L 280.237 66.826 277.168 68.413 L 274.099 70 272.710 70 L 271.321 70 269.064 77.750 L 266.807 85.500 265.009 93 L 263.211 100.500 261.605 106.460 L 260 112.420 259.976 115.960 L 259.951 119.500 258.868 124 L 257.786 128.500 256.597 139.308 L 255.407 150.117 256.006 155.558 L 256.605 161 256.053 160.999 L 255.500 160.997 255.705 167.492 L 255.909 173.986 257.705 175.879 L 259.500 177.772 263.579 178.445 L 267.658 179.118 271.550 180.456 L 275.443 181.795 278.646 176.647 L 281.849 171.500 284.034 167.500 L 286.219 163.500 286.859 163 L 287.500 162.500 291.948 154 L 296.396 145.500 300.186 138.500 L 303.976 131.500 308.380 122.500 L 312.783 113.500 315.997 106.500 L 319.211 99.500 321.484 94.500 L 323.757 89.500 325.114 85.500 L 326.470 81.500 328.041 78.804 L 329.613 76.108 336.056 80.533 L 342.500 84.958 348.700 90.497 L 354.900 96.035 360.725 103.268 L 366.550 110.500 369.120 114.500 L 371.691 118.500 373.837 123.359 L 375.984 128.217 375.558 128.906 L 375.132 129.595 375.890 130.821 L 376.647 132.047 378.547 129.774 L 380.447 127.500 379.057 128.717 L 377.667 129.933 375.350 124.232 L 373.033 118.531 368.297 111.601 L 363.562 104.670 355.531 96.162 L 347.500 87.655 339.911 82.011 L 332.322 76.367 323.554 72.084 L 314.786 67.800 305.643 65.913 L 296.500 64.026 294.500 64.093 L 292.500 64.159 286.369 65.493 M 197.011 306.269 L 194.617 308.500 196.058 306.587 L 197.500 304.675 196.028 305.162 L 194.555 305.648 194.028 307.574 L 193.500 309.500 192 309.831 L 190.500 310.162 189.724 311.539 L 188.947 312.917 187.720 312.446 L 186.493 311.975 184.607 314.488 L 182.720 317 181.329 317 L 179.937 317 179.320 318.609 L 178.702 320.218 176.255 322.859 L 173.807 325.500 173.124 325.500 L 172.441 325.500 166.830 331.500 L 161.219 337.500 157.561 341.903 L 153.903 346.305 154.420 347.653 L 154.937 349 153.665 349 L 152.392 349 147.327 355.750 L 142.262 362.500 138.424 368.500 L 134.585 374.500 132.286 378.716 L 129.987 382.932 126.584 388.713 L 123.180 394.493 124.132 395.082 L 125.084 395.670 128.078 402 L 131.072 408.331 137.791 414.915 L 144.511 421.500 150.506 424.650 L 156.500 427.799 164.500 430.296 L 172.500 432.793 185.722 434.472 L 198.944 436.152 208.722 435.016 L 218.500 433.881 223.500 432.851 L 228.500 431.822 233 430.239 L 237.500 428.656 238.706 427.742 L 239.912 426.828 240.956 427.473 L 242 428.118 242 426.590 L 242 425.063 240.250 425.687 L 238.500 426.310 237.339 427.204 L 236.178 428.097 235.588 427.142 L 234.998 426.188 233.010 426.708 L 231.022 427.227 231.658 428.364 L 232.293 429.500 230.947 428.250 L 229.600 427 228.300 427 L 227 427 227 428.500 L 227 430 225 430 L 223 430 222.985 428.750 L 222.969 427.500 222.235 428.624 L 221.500 429.748 214.500 430.013 L 207.500 430.278 199 430.223 L 190.500 430.168 186.714 429.885 L 182.929 429.602 183.597 426.558 L 184.266 423.514 188.211 412.507 L 192.156 401.500 196.016 389 L 199.877 376.500 203.563 362.500 L 207.249 348.500 209.194 339.500 L 211.139 330.500 211.652 328 L 212.165 325.500 212.901 320.955 L 213.637 316.410 213.227 315.180 L 212.817 313.950 206.658 309.800 L 200.500 305.650 199.953 304.844 L 199.406 304.039 197.011 306.269 M 107.232 452 L 107.232 455.500 107.689 453.750 L 108.147 452 107.689 450.250 L 107.232 448.500 107.232 452 M 153.250 499.689 L 155 500.147 156.750 499.689 L 158.500 499.232 155 499.232 L 151.500 499.232 153.250 499.689" stroke="none" fill="#f46649" fill-rule="evenodd"/><path d="M 317.557 8.491 L 311.613 10.934 306.242 14.633 L 300.870 18.333 296.596 23.416 L 292.322 28.500 289.339 33 L 286.356 37.500 282.822 44 L 279.288 50.500 275.495 59.767 L 271.701 69.034 272.320 69.653 L 272.939 70.272 277.747 68.204 L 282.554 66.136 289.060 65.003 L 295.566 63.870 305.170 65.832 L 314.774 67.794 323.548 72.081 L 332.322 76.367 339.911 82.011 L 347.500 87.655 355.531 96.162 L 363.562 104.670 368.297 111.601 L 373.033 118.531 375.399 124.353 L 377.765 130.174 379.352 127.908 L 380.940 125.641 384.909 116.571 L 388.879 107.500 391.565 98.500 L 394.252 89.500 394.360 75.500 L 394.468 61.500 392.149 54.500 L 389.830 47.500 386.669 41.500 L 383.509 35.500 375.504 27.404 L 367.500 19.308 360.500 15.209 L 353.500 11.110 345.622 8.555 L 337.745 6 330.622 6.024 L 323.500 6.047 317.557 8.491 M 119.233 404.250 L 115.180 413.500 112.635 422 L 110.090 430.500 108.934 437.301 L 107.777 444.102 108.227 454.301 L 108.677 464.500 110.831 470 L 112.986 475.500 116.757 480.500 L 120.528 485.500 126.932 489.717 L 133.335 493.935 139.480 495.920 L 145.624 497.905 154.812 499.083 L 164 500.262 172.933 499.116 L 181.865 497.971 189.059 495.043 L 196.252 492.116 201.376 488.695 L 206.500 485.273 212.586 479.274 L 218.672 473.274 223.846 465.539 L 229.019 457.804 232.422 450.652 L 235.825 443.500 238.552 435.723 L 241.279 427.945 240.664 427.330 L 240.048 426.715 238.774 427.685 L 237.500 428.656 233 430.239 L 228.500 431.822 223.500 432.851 L 218.500 433.881 208.722 435.016 L 198.944 436.152 185.722 434.472 L 172.500 432.793 164.500 430.296 L 156.500 427.799 150.506 424.650 L 144.511 421.500 137.771 414.896 L 131.031 408.291 127.921 401.646 L 124.811 395 124.049 395 L 123.286 395 119.233 404.250" stroke="none" fill="#fff15a" fill-rule="evenodd"/><path d="M 232.350 187.897 L 227.200 189.653 220.350 193.738 L 213.500 197.823 208.778 202.662 L 204.056 207.500 201.540 211.276 L 199.025 215.052 198.374 217.776 L 197.723 220.500 197.140 221.500 L 196.556 222.500 196.373 223.707 L 196.190 224.913 194.595 228.110 L 193 231.307 193 231.713 L 193 232.118 194 231.500 L 195 230.882 195 232.081 L 195 233.280 193.250 234.608 L 191.500 235.936 193.103 235.968 L 194.706 236 194.226 240.995 L 193.747 245.990 194.737 247.245 L 195.727 248.500 196.393 252.860 L 197.059 257.221 199.691 261.860 L 202.323 266.500 203.645 269.070 L 204.967 271.640 211.814 278.250 L 218.662 284.861 226.078 288.471 L 233.495 292.080 241.970 293.437 L 250.444 294.794 253.972 294.388 L 257.500 293.981 260.694 293.505 L 263.888 293.029 268.194 291.336 L 272.500 289.644 274.580 288.318 L 276.660 286.993 277.330 287.663 L 278 288.333 278 287.234 L 278 286.135 280.067 285.479 L 282.134 284.823 287.668 279.288 L 293.203 273.754 297.034 267.826 L 300.865 261.899 303.002 254.993 L 305.140 248.086 305.118 241.043 L 305.095 234 306.170 234 L 307.245 234 306 232.500 L 304.755 231 305.373 231 L 305.992 231 304.033 225.845 L 302.074 220.689 302.523 219.963 L 302.972 219.237 300.469 215.550 L 297.967 211.862 298.434 211.107 L 298.901 210.351 291.206 202.926 L 283.511 195.500 288.115 200.500 L 292.719 205.500 296.411 211.604 L 300.104 217.708 301.539 223.104 L 302.974 228.500 303.601 234.513 L 304.228 240.526 303.084 248.013 L 301.941 255.500 298.447 262.903 L 294.953 270.307 288.226 276.914 L 281.500 283.521 276 286.176 L 270.500 288.832 266.788 290.349 L 263.077 291.866 258.288 292.621 L 253.500 293.375 248.512 293.184 L 243.523 292.993 237.740 291.512 L 231.957 290.030 227.646 288.066 L 223.334 286.102 217.417 281.638 L 211.500 277.174 207.888 272.337 L 204.275 267.500 202.666 264.969 L 201.056 262.437 198.923 255.969 L 196.790 249.500 196.277 242.462 L 195.764 235.424 197.985 226.559 L 200.206 217.694 202.215 214.097 L 204.224 210.500 207.802 205.607 L 211.381 200.713 217.940 196.498 L 224.500 192.283 228 190.748 L 231.500 189.214 233.500 188.476 L 235.500 187.737 242 187.011 L 248.500 186.284 243 186.212 L 237.500 186.140 232.350 187.897 M 255.250 186.716 L 258 187.133 260.750 186.716 L 263.500 186.300 258 186.300 L 252.500 186.300 255.250 186.716" stroke="none" fill="#076a9e" fill-rule="evenodd"/><path d="M 326.728 5.722 L 329.955 6.123 333.728 5.730 L 337.500 5.336 330.500 5.328 L 323.500 5.320 326.728 5.722 M 375.500 27 L 380.425 32 380.925 32 L 381.425 32 376.500 27 L 371.575 22 371.075 22 L 370.575 22 375.500 27 M 268.195 77.244 L 265.068 87.500 262.543 97.500 L 260.018 107.500 260.068 109.500 L 260.117 111.500 263.466 98.500 L 266.815 85.500 269.464 76.640 L 272.112 67.779 271.717 67.383 L 271.321 66.988 268.195 77.244 M 395.310 74.500 L 395.320 80.500 395.725 77.232 L 396.129 73.964 395.715 71.232 L 395.300 68.500 395.310 74.500 M 258.500 116 L 257.801 120.135 258.268 120.601 L 258.734 121.067 259.400 116.900 L 260.066 112.733 259.632 112.299 L 259.199 111.865 258.500 116 M 256.476 127.346 L 255.787 132.861 256.232 134.180 L 256.676 135.500 257.400 129.145 L 258.123 122.790 257.644 122.311 L 257.165 121.832 256.476 127.346 M 376.232 132.750 L 374.328 135.500 373.605 136.750 L 372.882 138 373.308 138 L 373.734 138 376.381 134 L 379.028 130 378.582 130 L 378.136 130 376.232 132.750 M 254.544 142.436 L 253.855 148.872 253.819 162.994 L 253.783 177.116 254.228 177.562 L 254.674 178.008 260.587 179.055 L 266.500 180.102 273 182.175 L 279.500 184.249 283.500 186.370 L 287.500 188.492 292.500 192.142 L 297.500 195.793 302.099 200.647 L 306.697 205.500 309.964 210.174 L 313.230 214.849 314.365 214.364 L 315.500 213.879 319 209.595 L 322.500 205.310 335.039 190.405 L 347.578 175.500 352.134 169.500 L 356.689 163.500 361.613 156.500 L 366.538 149.500 368.313 146.500 L 370.088 143.500 368.479 145.500 L 366.870 147.500 359.612 157.781 L 352.355 168.061 341.951 180.781 L 331.547 193.500 323.109 203.312 L 314.670 213.124 312.295 210.312 L 309.919 207.500 305.710 202.621 L 301.500 197.742 301 197.121 L 300.500 196.500 296 192.905 L 291.500 189.311 286 186.296 L 280.500 183.281 274 181.225 L 267.500 179.168 261.127 177.930 L 254.755 176.692 255.183 156.346 L 255.611 136 255.422 136 L 255.233 136 254.544 142.436 M 191.522 306.552 L 186.545 309.995 177.700 318.747 L 168.855 327.500 163.678 333.500 L 158.501 339.500 174 323.999 L 189.500 308.498 194.189 306.209 L 198.878 303.920 203.689 307.485 L 208.500 311.049 212.472 314.274 L 216.444 317.500 218.972 318.891 L 221.500 320.282 224 320.151 L 226.500 320.020 225 321.040 L 223.500 322.061 226.153 321.446 L 228.806 320.832 229.873 322.666 L 230.939 324.500 230.970 323.451 L 231 322.402 234.611 322.823 L 238.222 323.245 236.861 324.094 L 235.500 324.943 239.500 324.453 L 243.500 323.963 241.500 324.911 L 239.500 325.859 244 326.048 L 248.500 326.237 249.750 326.075 L 251 325.912 251 327.015 L 251 328.118 251.887 327.570 L 252.773 327.022 253.926 328.411 L 255.078 329.799 254.419 335.150 L 253.760 340.500 253.975 341.750 L 254.190 343 254.268 348.250 L 254.346 353.500 253.525 361.750 L 252.704 370 252.066 370 L 251.429 370 251.292 371.750 L 251.155 373.500 251.003 377 L 250.852 380.500 249.868 386 L 248.884 391.500 247.983 396.500 L 247.082 401.500 245.835 407.750 L 244.587 414 243.687 414 L 242.786 414 243.362 415.500 L 243.937 417 243.219 417 L 242.500 417 242.414 419.250 L 242.327 421.500 241.516 423.500 L 240.706 425.500 241.971 424.332 L 243.236 423.164 245.147 415.332 L 247.058 407.500 248.081 402.500 L 249.104 397.500 251.116 385.500 L 253.127 373.500 254.020 365.500 L 254.913 357.500 256.436 345 L 257.960 332.500 257.980 327.889 L 258 323.279 246.750 322.706 L 235.500 322.134 229.250 320.158 L 222.999 318.183 216.250 314.501 L 209.500 310.819 204.821 306.909 L 200.141 303 198.321 303.055 L 196.500 303.110 191.522 306.552 M 151.752 347.954 L 145.500 355.908 139.762 364.954 L 134.025 374 134.507 374 L 134.988 374 140.336 365.750 L 145.684 357.500 152.311 348.750 L 158.939 340 158.472 340 L 158.005 340 151.752 347.954 M 131.500 378 L 129.949 381 130.449 381 L 130.949 381 132.500 378 L 134.051 375 133.551 375 L 133.051 375 131.500 378 M 126.500 387 L 123.966 392 124.466 392 L 124.966 392 127.500 387 L 130.034 382 129.534 382 L 129.034 382 126.500 387 M 107.272 445 L 107.272 449.500 107.706 447.250 L 108.139 445 107.706 442.750 L 107.272 440.500 107.272 445 M 117 482.313 L 117 482.626 120.250 485.563 L 123.500 488.500 120.563 485.250 L 117.626 482 117.313 482 L 117 482 117 482.313 M 160.250 500.728 L 164 501.121 167.750 500.728 L 171.500 500.336 164 500.336 L 156.500 500.336 160.250 500.728 M 156.784 505.738 L 162.067 506.107 166.784 505.734 L 171.500 505.360 161.500 505.365 L 151.500 505.370 156.784 505.738" stroke="none" fill="#df4c36" fill-rule="evenodd"/></svg>